<?xml version="1.0" encoding="utf-8"?>
<!-- Generator: Adobe Illustrator 22.0.1, SVG Export Plug-In . SVG Version: 6.00 Build 0)  -->
<svg version="1.1" id="Layer_1" xmlns="http://www.w3.org/2000/svg" xmlns:xlink="http://www.w3.org/1999/xlink" x="0px" y="0px"
	 viewBox="0 0 200 100" style="enable-background:new 0 0 200 100;" xml:space="preserve">
<g>
	<path d="M24.3,34.1h3.1l-3.1,10.6h0.1c0.8-0.9,1.8-1.7,2.9-2.2c1.1-0.5,2.3-0.9,3.4-0.9c2.3,0,5.5,1.4,3.8,7.3l-3,10.1h-3.1
		l2.9-9.8c0.8-2.7,0.5-5.1-2.4-5.1c-2,0-4,1.4-5.1,3.1c-0.3,0.4-0.5,0.9-0.6,1.5l-3,10.3h-3.1L24.3,34.1z"/>
	<path d="M45.8,59.1l0.4-2.1h-0.1c-1.3,1.3-3.5,2.5-6,2.5c-3.5,0-4.5-2.4-3.8-4.9c1.2-4.1,5.5-6.4,12.1-6.3l0.1-0.4
		c0.4-1.4,0.8-3.9-2.7-3.9c-1.6,0-3.4,0.5-4.8,1.3l-0.1-2c1.7-0.9,3.9-1.5,6-1.5c5.2,0,5.4,3.6,4.4,7L49.6,55
		c-0.4,1.5-0.8,2.9-0.9,4.1H45.8z M48,50.4c-3.4-0.1-7.4,0.5-8.3,3.8c-0.6,2,0.5,3,2,3c2.2,0,4-1.4,5-2.9c0.2-0.3,0.4-0.7,0.5-1
		L48,50.4z"/>
	<path d="M57,46.7c0.5-1.8,0.9-3.2,1.2-4.6H61l-0.7,2.8h0.1c1.3-1.6,3.8-3.2,6.6-3.2c2.4,0,5.6,1.4,3.9,7.2l-3,10.2h-3.1l2.9-9.8
		c0.8-2.7,0.5-5-2.5-5c-2,0-4.1,1.4-5.1,3.2c-0.3,0.4-0.5,0.9-0.6,1.4l-3,10.2h-3.1L57,46.7z"/>
	<path d="M78.6,42.1l0.8,10.1c0.1,1.1,0.1,2.5,0.1,3.5h0.1c0.6-1,1.4-2.3,2.1-3.6l6.3-10h3.3L83,54.2c-3.9,5.8-6.3,8.8-9,10.7
		c-1.9,1.3-3.6,1.9-4.4,2l0-2.6c0.8-0.2,2-0.7,3.2-1.5c1-0.7,2.5-1.9,3.6-3.4c0.2-0.3,0.4-0.6,0.5-0.7s0.1-0.4,0-0.8l-1.7-15.7H78.6
		z"/>
	<path d="M106.7,50.4c-1.9,6.3-7,9-11.2,9c-4.6,0-7.2-3.4-5.6-8.8c1.7-5.7,6.4-9,11.1-9C105.9,41.7,108.2,45.2,106.7,50.4z
		 M93.1,50.6c-1.1,3.7,0.2,6.5,3.2,6.5c3,0,6-2.8,7.1-6.6c0.9-2.9,0.5-6.5-3.2-6.5S94,47.4,93.1,50.6z"/>
	<path d="M111.7,46.7c0.5-1.8,0.9-3.2,1.2-4.6h2.7l-0.7,2.8h0.1c1.3-1.6,3.8-3.2,6.6-3.2c2.4,0,5.6,1.4,3.9,7.2l-3,10.2h-3.1
		l2.9-9.8c0.8-2.7,0.5-5-2.5-5c-2,0-4.1,1.4-5.1,3.2c-0.3,0.4-0.5,0.9-0.6,1.4l-3,10.2H108L111.7,46.7z"/>
	<path d="M147.2,42.1c-0.4,1.2-0.9,2.6-1.5,4.7l-2.9,9.9c-1.2,3.9-2.6,6.3-4.7,7.8c-2.1,1.5-4.7,2-6.8,2c-2,0-4.1-0.5-5.3-1.4
		l1.5-2.4c0.9,0.7,2.5,1.3,4.6,1.3c3.2,0,6-1.7,7.3-5.9l0.6-1.9h-0.1c-1.4,1.6-3.6,2.9-6.3,2.9c-4.2,0-6.2-3.6-4.8-8.3
		c1.7-5.8,6.4-9,10.3-9c3,0,4.1,1.5,4.4,3h0.1l0.9-2.6H147.2z M142.1,48.8c0.2-0.5,0.3-1,0.2-1.4c0-1.8-1.1-3.3-3.4-3.3
		c-3,0-5.8,2.5-7,6.4c-1,3.3-0.1,6.1,3.2,6.1c1.9,0,4-1.2,5.2-3.2c0.3-0.5,0.6-1.1,0.7-1.7L142.1,48.8z"/>
	<path d="M165.9,38.8h-8.7l-2.6,5.9c0.5-0.1,1.1-0.1,1.9-0.1c1.8,0,3.4,0.4,4.6,1.2c1.5,1,2.4,3,1.5,5.9c-1.3,4.5-5.9,7.8-10.8,7.8
		c-2.5,0-4.4-0.7-5.3-1.4l1.5-2.4c0.8,0.6,2.4,1.3,4.5,1.3c2.9,0,6-1.9,6.9-5c0.8-3-0.5-5.1-5.1-5.1c-1.3,0-2.4,0.1-3.2,0.2l4.7-11
		h10.9L165.9,38.8z"/>
</g>
</svg>
