<?xml version="1.0" encoding="utf-8"?>
<!-- Generator: Adobe Illustrator 22.0.1, SVG Export Plug-In . SVG Version: 6.00 Build 0)  -->
<svg version="1.1" id="Layer_1" xmlns="http://www.w3.org/2000/svg" xmlns:xlink="http://www.w3.org/1999/xlink" x="0px" y="0px"
	 viewBox="0 0 1000 134" style="enable-background:new 0 0 1000 134;" xml:space="preserve">
<style type="text/css">
	.st0{fill:#70C8BA;opacity:0.3;animation:move1 1s infinite alternate}
	@keyframes move1{
	from{transfrom:translateX(-20)}
	to{transfrom:translateX(20)}
	}

	.st1{fill:#64CADA;opacity:0.3}
</style>
<path class="st0" d="M-39.5,123.1c3.6-27.3,28.5-54.4,55.3-60.3l79.3-17.5c26.9-5.9,70.4-4.3,96.7,3.6l4.2,1.3
	c26.3,7.9,70.3,12.4,97.7,10l241.4-21.2c27.4-2.4,69.1,7.3,92.6,21.5l33.4,20.2c23.5,14.2,62.4,14.9,86.4,1.5l30.7-17.2
	c24-13.4,64.5-16,90-5.6l28.3,11.5C922.1,81.1,957,77.1,974,62s31-5,31,22.5v73c0,27.5-22.5,50.3-50,50.6c0,0-1004,11.4-1004-0.6
	S-39.5,123.1-39.5,123.1z"/>
<path class="st1" d="M1017.5,123.1c-3.6-27.3-28.5-54.4-55.3-60.3l-79.3-17.5c-26.9-5.9-70.4-4.3-96.7,3.6l-4.2,1.3
	c-26.3,7.9-70.3,12.4-97.7,10L442.8,38.9c-27.4-2.4-69.1,7.3-92.6,21.5l-33.4,20.2c-23.5,14.2-62.4,14.9-86.4,1.5l-30.7-17.2
	c-24-13.4-64.5-16-90-5.6L81.3,70.7C55.9,81.1,21,77.1,4,62s-31-5-31,22.5v73c0,27.5,22.5,50.3,50,50.6c0,0,1004,11.4,1004-0.6
	S1017.5,123.1,1017.5,123.1z"/>
</svg>
